<?xml version="1.0" encoding="utf-8"?>
<!-- Generator: Adobe Illustrator 21.0.0, SVG Export Plug-In . SVG Version: 6.00 Build 0)  -->
<svg version="1.1" id="Camada_1" xmlns="http://www.w3.org/2000/svg" xmlns:xlink="http://www.w3.org/1999/xlink" x="0px" y="0px"
	 viewBox="0 0 286.3 124.3" style="enable-background:new 0 0 286.3 124.3;" xml:space="preserve">
<style type="text/css">
	.st0{fill:#FFFFFF;}
	.st1{fill:#853393;}
	.st2{fill:#FFE36E;}
	.st3{font-family:'Calibri-Light';}
	.st4{font-size:15.5783px;}
	.st5{fill:none;}
	.st6{fill:#5E5E5E;}
	.st7{font-family:'Calibri-Bold';}
	.st8{font-size:72.4392px;}
</style>
<g>
	<path class="st0" d="M280.4,124H7.2c-2.9,0-5.3-2.4-5.3-5.3V7.3C1.9,4.4,4.2,2,7.2,2h273.2c2.9,0,5.3,2.4,5.3,5.3v111.3
		C285.7,121.6,283.3,124,280.4,124z"/>
	<g>
		<path class="st1" d="M25.1,13l-2.8,8.4h-8.4l7,5.6l-2.8,8.4l7-5.6l7,5.6L29.3,27l7-5.6h-8.4L25.1,13z"/>
	</g>
	<g>
		<g>
			<polygon class="st2" points="158.6,63.2 156.3,70.1 149.4,70.1 155.1,74.7 152.8,81.5 158.6,76.9 164.3,81.5 162,74.7 
				167.8,70.1 160.9,70.1 			"/>
		</g>
	</g>
	<g>
		<g>
			<polygon class="st2" points="185.4,63.2 183.1,70.1 176.2,70.1 182,74.7 179.7,81.5 185.4,76.9 191.2,81.5 188.9,74.7 
				194.6,70.1 187.7,70.1 			"/>
		</g>
	</g>
	<g>
		<g>
			<polygon class="st2" points="211.6,63.2 209.3,70.1 202.4,70.1 208.2,74.7 205.9,81.5 211.6,76.9 217.4,81.5 215.1,74.7 
				220.8,70.1 213.9,70.1 			"/>
		</g>
	</g>
	<g>
		<g>
			<polygon class="st2" points="233.4,63.2 231.1,70.1 224.2,70.1 229.9,74.7 227.6,81.5 233.4,76.9 239.1,81.5 236.8,74.7 
				242.5,70.1 235.7,70.1 			"/>
		</g>
	</g>
	<g>
		<g>
			<path class="st2" d="M257,66.3l1.3,4l0.2,0.7h0.7h4l-3.5,2.8l-0.5,0.4l0.2,0.7l1.2,3.7l-3.1-2.5l-0.6-0.5l-0.6,0.5l-3.1,2.5
				l1.2-3.7l0.2-0.7l-0.5-0.4l-3.5-2.8h4h0.7l0.2-0.7L257,66.3 M257,63.2l-2.3,6.9h-6.9l5.7,4.6l-2.3,6.9l5.7-4.6l5.7,4.6l-2.3-6.9
				l5.7-4.6h-6.9L257,63.2L257,63.2z"/>
		</g>
	</g>
	<text transform="matrix(1 0 0 1 232.3936 28.4844)" class="st3 st4">Score</text>
	<rect x="34" y="44.7" class="st5" width="93" height="65.7"/>
	<text transform="matrix(1 0 0 1 33.9727 93.8193)" class="st6 st7 st8">4,0</text>
</g>
</svg>
